# xmcd CD database file
#
# Track frame offsets:
#	150
#	31118
#	54130
#	74458
#	99576
#	131741
#	156904
#	180441
#	198102
#	220294
#	241909
#	263997
#	289403
#	312212
#	332783
#
# Disc length: 4771 seconds
#
# Revision: 0
# Processed by: cddbd v1.5.2PL0 Copyright (c) Steve Scherf et al.
# Submitted via: CDex 1.70beta3
#
DISCID=d812a10f
DTITLE=GLAY - The Great Vacation Vol. 2 [Disc 1]
DYEAR=1900
DGENRE=ロック
TTITLE0=RAIN
TTITLE1=真夏の扉
TTITLE2=彼女の"Modern..."
TTITLE3=Freeze My Love
TTITLE4=ずっと2人で…
TTITLE5=GONE WITH THE WIND
TTITLE6=Yes, Summerdays
TTITLE7=生きてく強さ
TTITLE8=グロリアス
TTITLE9=BELOVED
TTITLE10=a Boy ～ずっと忘れない～
TTITLE11=カーテンコール
TTITLE12=春を愛する人
TTITLE13=口唇
TTITLE14=HOWEVER
EXTD=
EXTT0=
EXTT1=
EXTT2=
EXTT3=
EXTT4=
EXTT5=
EXTT6=
EXTT7=
EXTT8=
EXTT9=
EXTT10=
EXTT11=
EXTT12=
EXTT13=
EXTT14=
PLAYORDER=
